<svg xmlns="http://www.w3.org/2000/svg" style="display:none"><symbol id="icon-strategy" fill="none" viewBox="0 0 64 64"><circle cx="32" cy="32" r="30" stroke="currentColor" stroke-width="2"/><circle cx="32" cy="32" r="19" stroke="currentColor" stroke-width="2"/><circle cx="32" cy="32" r="8" stroke="currentColor" stroke-width="2"/><circle cx="32" cy="32" r="2" fill="currentColor"/><path stroke="currentColor" stroke-linecap="round" stroke-width="2" d="M32 2v8"/></symbol><symbol id="icon-punctuality" fill="none" viewBox="0 0 64 64"><circle cx="32" cy="32" r="28" stroke="currentColor" stroke-width="2"/><path stroke="currentColor" stroke-linecap="round" stroke-linejoin="round" stroke-width="2" d="M32 16v16l11 8"/></symbol><symbol id="icon-diligence" fill="none" viewBox="0 0 64 64"><rect width="48" height="32" x="8" y="12" stroke="currentColor" stroke-width="2" rx="3"/><path stroke="currentColor" stroke-linecap="round" stroke-width="2" d="M24 52h16m-8-8v8"/><path stroke="currentColor" stroke-linecap="round" stroke-linejoin="round" stroke-width="2" d="m15 34 9-10 7 6 17-12"/><path stroke="currentColor" stroke-linecap="round" stroke-linejoin="round" stroke-width="2" d="M40 18h8v8"/></symbol><symbol id="icon-technologies" fill="none" viewBox="0 0 64 64"><rect width="24" height="38" x="20" y="8" stroke="currentColor" stroke-width="2" rx="12"/><circle cx="32" cy="22" r="4" stroke="currentColor" stroke-width="2"/><path stroke="currentColor" stroke-linecap="round" stroke-linejoin="round" stroke-width="2" d="M20 34C12 38 8 46 8 46s10 4 18 0M44 34c8 4 12 12 12 12s-10 4-18 0"/><path fill="currentColor" d="m50 12 1.5 3.5L55 17l-3.5 1.5L50 22l-1.5-3.5L45 17l3.5-1.5zM14 4l1 2.5 2.5 1-2.5 1-1 2.5-1-2.5-2.5-1 2.5-1z"/></symbol><symbol id="icon-instagram" fill="none" viewBox="0 0 24 24"><rect width="18" height="18" x="3" y="3" stroke="currentColor" stroke-width="1.6" rx="5"/><circle cx="12" cy="12" r="4.2" stroke="currentColor" stroke-width="1.6"/><circle cx="17.2" cy="6.8" r="1" fill="currentColor"/></symbol><symbol id="icon-twitter" fill="none" viewBox="0 0 24 24"><path fill="currentColor" d="M21 5.5c-.7.4-1.5.6-2.3.8.8-.5 1.5-1.3 1.8-2.3-.8.5-1.7.8-2.6 1a4.1 4.1 0 0 0-7 3.7 11.6 11.6 0 0 1-8.3-4.5 4.1 4.1 0 0 0 1.3 5.4c-.6 0-1.3-.2-1.8-.5v.1c0 2 1.4 3.6 3.3 4a4.1 4.1 0 0 1-1.8.1 4.1 4.1 0 0 0 3.8 2.8A8.2 8.2 0 0 1 2 17.6a11.6 11.6 0 0 0 6.3 1.8c7.5 0 11.7-6.3 11.7-11.7v-.5c.8-.6 1.5-1.3 2-2.2Z"/></symbol><symbol id="icon-facebook" fill="none" viewBox="0 0 24 24"><path fill="currentColor" d="M14 22v-8h2.7l.4-3.2H14V8.7c0-.9.3-1.6 1.6-1.6h1.7V4.3c-.3 0-1.4-.3-2.6-.3-2.7 0-4.5 1.6-4.5 4.4v2.4H7.5V14h2.7v8z"/></symbol><symbol id="icon-linkedin" fill="none" viewBox="0 0 24 24"><rect width="18" height="18" x="3" y="3" stroke="currentColor" stroke-width="1.6" rx="3"/><circle cx="7.5" cy="8" r="1.3" fill="currentColor"/><path stroke="currentColor" stroke-linecap="round" stroke-width="1.8" d="M7.5 11v6"/><path stroke="currentColor" stroke-linecap="round" stroke-linejoin="round" stroke-width="1.8" d="M11.5 17v-3.5c0-1.4 1-2.3 2.2-2.3s1.8.8 1.8 2.3V17"/><path stroke="currentColor" stroke-linecap="round" stroke-width="1.8" d="M11.5 11v6"/></symbol></svg>