<svg xmlns="http://www.w3.org/2000/svg" style="display:none">
  <symbol id="icon-strategy" viewBox="0 0 59.72 64.00">
    <g transform="translate(-258.14,-816.00)">
    <path fill="#2E2F42" d="M317.546 860.195L300.66 843.185L302.534 833.954C303.018 834.143 303.532 834.242 304.051 834.245H304.064C306.448 834.273 308.404 832.363 308.432 829.979C308.461 827.594 306.55 825.638 304.166 825.61C301.781 825.582 299.825 827.492 299.797 829.877C299.791 830.387 299.875 830.894 300.047 831.375L290.127 832.586L273.945 816.32C273.747 816.117 273.476 816.002 273.192 816C272.912 816.001 272.644 816.113 272.445 816.31L269.42 819.318C269.004 819.735 269.004 820.41 269.42 820.827L271.048 822.478C264.742 834.074 266.79 848.433 276.087 857.804C276.172 857.885 276.271 857.951 276.379 857.999C276.312 858.36 276.277 858.726 276.275 859.093V871.467H263.475C260.531 871.47 258.145 873.856 258.141 876.8V878.933C258.141 879.522 258.619 880 259.208 880H308.275C308.864 880 309.341 879.522 309.341 878.933V876.8C309.338 873.856 306.952 871.47 304.008 871.467H291.208V865.983C293.213 866.403 295.256 866.618 297.305 866.623C302.221 866.618 307.059 865.392 311.385 863.056L313.021 864.702C313.22 864.904 313.491 865.02 313.775 865.022C314.055 865.02 314.323 864.909 314.521 864.711L317.546 861.703C317.963 861.287 317.963 860.612 317.546 860.195ZM302.56 828.466C303.395 827.635 304.746 827.639 305.577 828.474C306.407 829.31 306.404 830.66 305.568 831.491C305.169 831.889 304.627 832.112 304.063 832.112H304.057C302.879 832.106 301.929 831.146 301.935 829.968C301.938 829.404 302.164 828.864 302.564 828.466H302.56ZM300.049 835.475L298.852 841.366L296.501 839.002L300.049 835.475ZM298.837 833.671L294.997 837.489L292.026 834.502L298.837 833.671ZM304.008 873.6C305.775 873.6 307.208 875.033 307.208 876.8V877.867H260.275V876.8C260.275 875.033 261.707 873.6 263.475 873.6H304.008ZM289.075 869.333V871.467H278.408V869.333H289.075ZM278.408 867.2V859.093C278.408 856.506 280.801 854.4 283.741 854.4C286.682 854.4 289.075 856.506 289.075 859.093V867.2H278.408ZM291.208 863.808V859.093C291.208 855.329 287.859 852.267 283.741 852.267C281.079 852.226 278.59 853.581 277.179 855.839C269.064 847.291 267.236 834.549 272.622 824.065L309.826 861.482C304.081 864.404 297.495 865.227 291.208 863.808ZM313.786 862.441L312.283 860.929L273.181 821.591L271.672 820.079L273.181 818.575L289.051 834.534C289.059 834.534 289.063 834.548 289.071 834.554L315.3 860.937L313.786 862.441Z"/>
    <path fill="#4D5AE5" d="M283.751 856.533H283.741C281.974 856.531 280.539 857.961 280.537 859.729C280.534 861.496 281.965 862.931 283.732 862.933H283.741C285.509 862.936 286.944 861.505 286.946 859.738C286.949 857.971 285.518 856.536 283.751 856.533ZM284.498 860.49C284.297 860.689 284.025 860.801 283.741 860.8C283.152 860.797 282.677 860.317 282.68 859.728C282.682 859.446 282.795 859.176 282.995 858.977C283.193 858.78 283.461 858.668 283.741 858.667C284.331 858.67 284.806 859.15 284.803 859.739C284.801 860.021 284.688 860.291 284.488 860.49H284.498Z"/>
    </g>
  </symbol>

  <symbol id="icon-punctuality" viewBox="0 0 61.22 64.00">
    <g transform="translate(-545.37,-816.00)">
    <path fill="#2E2F42" d="M606.593 846.603C606.59 829.698 592.883 815.997 575.978 816C559.073 816.003 545.372 829.711 545.375 846.616C545.378 859.932 553.989 871.718 566.674 875.768C566.795 875.806 566.921 875.826 567.047 875.825C567.289 875.825 567.525 875.76 567.732 875.638C568.002 875.478 568.204 875.224 568.299 874.925L576.029 850.425C578.142 850.414 579.846 848.692 579.835 846.579C579.824 844.466 578.103 842.762 575.989 842.772C575.421 842.775 574.86 842.906 574.349 843.155L564.137 832.942C563.63 832.453 562.823 832.467 562.334 832.973C561.856 833.468 561.856 834.251 562.334 834.746L572.541 844.964C571.757 846.563 572.205 848.492 573.613 849.582L566.248 872.928C551.692 867.566 544.239 851.42 549.601 836.864C554.963 822.309 571.109 814.855 585.665 820.217C600.22 825.579 607.673 841.726 602.312 856.281C599.692 863.392 594.31 869.143 587.387 872.228L586.591 868.479C586.446 867.79 585.769 867.35 585.08 867.496C584.862 867.542 584.661 867.644 584.495 867.792L576.821 874.643C576.294 875.111 576.248 875.917 576.716 876.444C576.869 876.615 577.064 876.742 577.283 876.812L587.08 879.938C587.75 880.154 588.469 879.785 588.684 879.114C588.752 878.902 588.764 878.677 588.718 878.459L587.936 874.781C599.264 870.005 606.62 858.896 606.593 846.603ZM575.984 845.327C576.688 845.327 577.26 845.898 577.26 846.603C577.26 847.307 576.688 847.878 575.984 847.878C575.28 847.878 574.709 847.307 574.709 846.603C574.709 845.898 575.28 845.327 575.984 845.327ZM580.185 875.055L584.553 871.159L585.759 876.839L580.185 875.055Z"/>
    <path fill="#4D5AE5" d="M574.709 822.37V824.921C574.709 825.625 575.28 826.196 575.984 826.196C576.688 826.196 577.26 825.625 577.26 824.921V822.37C577.26 821.666 576.688 821.095 575.984 821.095C575.28 821.095 574.709 821.666 574.709 822.37Z"/>
    <path fill="#4D5AE5" d="M551.752 845.327C551.047 845.327 550.477 845.898 550.477 846.603C550.477 847.307 551.047 847.878 551.752 847.878H554.303C555.007 847.878 555.578 847.307 555.578 846.603C555.578 845.898 555.007 845.327 554.303 845.327H551.752Z"/>
    <path fill="#4D5AE5" d="M600.216 847.878C600.921 847.878 601.492 847.307 601.492 846.603C601.492 845.898 600.921 845.327 600.216 845.327H597.665C596.961 845.327 596.39 845.898 596.39 846.603C596.39 847.307 596.961 847.878 597.665 847.878H600.216Z"/>
    </g>
  </symbol>

  <symbol id="icon-diligence" viewBox="0 0 64.00 49.09">
    <g transform="translate(-832.00,-823.50)">
    <path fill="#4D5AE5" d="M861.851 845.929H863.983V855.524H861.851V845.929Z"/>
    <path fill="#4D5AE5" d="M870.38 850.194H872.512V855.524H870.38V850.194Z"/>
    <path fill="#4D5AE5" d="M853.322 853.392H855.454V855.524H853.322V853.392Z"/>
    <path fill="#4D5AE5" d="M846.926 852.326H849.058V855.524H846.926V852.326Z"/>
    <path fill="#2E2F42" d="M835.198 872.582H886.372C888.138 872.582 889.57 871.15 889.57 869.384V865.119C889.57 863.353 888.138 861.921 886.372 861.921H885.305V835.334L891.361 829.598C892.767 830.291 894.468 829.87 895.388 828.6C896.308 827.331 896.179 825.584 895.083 824.463C893.986 823.343 892.242 823.176 890.953 824.068C889.664 824.96 889.206 826.651 889.868 828.072L885.305 832.397V829.938C885.305 828.171 883.873 826.739 882.107 826.739H839.463C837.696 826.739 836.264 828.171 836.264 829.938V861.921H835.198C833.432 861.921 832 863.353 832 865.119V869.384C832 871.15 833.432 872.582 835.198 872.582ZM892.768 825.673C893.357 825.673 893.834 826.151 893.834 826.739C893.834 827.328 893.357 827.805 892.768 827.805C892.179 827.805 891.702 827.328 891.702 826.739C891.702 826.151 892.179 825.673 892.768 825.673ZM838.397 829.938C838.397 829.349 838.874 828.871 839.463 828.871H882.107C882.696 828.871 883.173 829.349 883.173 829.938V834.415L881.041 836.441V832.07C881.041 831.481 880.564 831.004 879.975 831.004H841.595C841.006 831.004 840.529 831.481 840.529 832.07V858.723C840.529 859.311 841.006 859.789 841.595 859.789H879.975C880.564 859.789 881.041 859.311 881.041 858.723V839.374L883.173 837.354V861.921H838.397V829.938ZM847.992 843.797C846.549 843.793 845.283 844.754 844.899 846.144C844.515 847.535 845.109 849.009 846.35 849.745C847.59 850.482 849.17 850.297 850.206 849.294L853.912 851.153C854.342 851.369 854.865 851.268 855.185 850.908L863.062 842.045L870.806 847.848C871.222 848.159 871.802 848.126 872.178 847.769L878.909 841.394V857.656H842.661V833.136H878.909V838.457L871.366 845.6L863.557 839.745C863.113 839.413 862.489 839.476 862.121 839.89L854.135 848.875L851.149 847.382C851.171 847.254 851.185 847.125 851.19 846.995C851.19 845.229 849.758 843.797 847.992 843.797ZM849.058 846.995C849.058 847.584 848.58 848.061 847.992 848.061C847.403 848.061 846.926 847.584 846.926 846.995C846.926 846.407 847.403 845.929 847.992 845.929C848.58 845.929 849.058 846.407 849.058 846.995ZM855.454 864.053H866.115V865.119C866.115 865.708 865.638 866.185 865.049 866.185H856.52C855.932 866.185 855.454 865.708 855.454 865.119V864.053ZM834.132 865.119C834.132 864.53 834.61 864.053 835.198 864.053H853.322V865.119C853.322 866.885 854.754 868.318 856.52 868.318H865.049C866.816 868.318 868.248 866.885 868.248 865.119V864.053H886.372C886.96 864.053 887.438 864.53 887.438 865.119V869.384C887.438 869.972 886.96 870.45 886.372 870.45H835.198C834.61 870.45 834.132 869.972 834.132 869.384V865.119Z"/>
    </g>
  </symbol>

  <symbol id="icon-technologies" viewBox="0 0 64.00 56.49">
    <g transform="translate(-1120.00,-819.76)">
    <path fill="#4D5AE5" d="M1183.95 825.048C1183.82 824.663 1183.49 824.381 1183.09 824.323L1179.27 823.767L1177.56 820.305C1177.2 819.575 1176 819.575 1175.64 820.305L1173.93 823.767L1170.11 824.323C1169.71 824.381 1169.38 824.662 1169.25 825.048C1169.13 825.434 1169.23 825.859 1169.52 826.142L1172.29 828.837L1171.63 832.643C1171.57 833.043 1171.73 833.447 1172.06 833.686C1172.39 833.928 1172.82 833.957 1173.18 833.767L1176.6 831.97L1180.02 833.767C1180.17 833.85 1180.35 833.89 1180.51 833.89C1180.74 833.89 1180.96 833.822 1181.14 833.686C1181.47 833.447 1181.63 833.043 1181.57 832.643L1180.91 828.837L1183.68 826.142C1183.97 825.858 1184.07 825.434 1183.95 825.048ZM1179.02 827.702C1178.77 827.946 1178.66 828.3 1178.72 828.646L1179.1 830.874L1177.1 829.823C1176.94 829.74 1176.77 829.7 1176.6 829.7C1176.43 829.7 1176.26 829.74 1176.1 829.823L1174.1 830.874L1174.48 828.646C1174.54 828.3 1174.43 827.947 1174.18 827.702L1172.56 826.123L1174.79 825.798C1175.14 825.748 1175.44 825.529 1175.6 825.215L1176.6 823.188L1177.6 825.215C1177.76 825.529 1178.05 825.748 1178.4 825.798L1180.64 826.123L1179.02 827.702Z"/>
    <path fill="#4D5AE5" d="M1172.27 857.044H1170.13V859.178H1172.27V857.044Z"/>
    <path fill="#4D5AE5" d="M1172.27 861.311H1170.13V863.445H1172.27V861.311Z"/>
    <path fill="#4D5AE5" d="M1174.4 859.178H1172.27V861.311H1174.4V859.178Z"/>
    <path fill="#4D5AE5" d="M1170.13 859.178H1168V861.311H1170.13V859.178Z"/>
    <path fill="#4D5AE5" d="M1164.8 868.778H1162.67V870.911H1164.8V868.778Z"/>
    <path fill="#4D5AE5" d="M1164.8 873.045H1162.67V875.178H1164.8V873.045Z"/>
    <path fill="#4D5AE5" d="M1166.93 870.911H1164.8V873.045H1166.93V870.911Z"/>
    <path fill="#4D5AE5" d="M1162.67 870.911H1160.53V873.045H1162.67V870.911Z"/>
    <path fill="#4D5AE5" d="M1152 864.511H1149.87V866.645H1152V864.511Z"/>
    <path fill="#4D5AE5" d="M1152 868.778H1149.87V870.911H1152V868.778Z"/>
    <path fill="#4D5AE5" d="M1154.13 866.645H1152V868.778H1154.13V866.645Z"/>
    <path fill="#4D5AE5" d="M1149.87 866.645H1147.73V868.778H1149.87V866.645Z"/>
    <path fill="#4D5AE5" d="M1131.73 828.244H1129.6V830.377H1131.73V828.244Z"/>
    <path fill="#4D5AE5" d="M1131.73 832.511H1129.6V834.644H1131.73V832.511Z"/>
    <path fill="#4D5AE5" d="M1133.87 830.377H1131.73V832.511H1133.87V830.377Z"/>
    <path fill="#4D5AE5" d="M1129.6 830.377H1127.47V832.511H1129.6V830.377Z"/>
    <path fill="#2E2F42" d="M1169.43 844.319C1168.85 843.543 1168.01 843.044 1167.05 842.91C1166.09 842.773 1165.14 843.026 1164.37 843.614L1161.87 845.533L1161.87 845.534L1158.07 848.368L1155.36 847.286C1160.2 845.114 1163.59 840.27 1163.59 834.646C1163.59 827 1157.34 820.779 1149.66 820.779C1141.99 820.779 1135.74 827 1135.74 834.646C1135.74 837.417 1136.57 839.994 1137.98 842.163L1132.45 842.115C1132.45 842.115 1132.45 842.115 1132.44 842.115C1132.43 842.115 1132.41 842.124 1132.4 842.125C1132.29 842.129 1132.19 842.15 1132.09 842.187C1132.06 842.196 1132.03 842.202 1132.01 842.213C1132 842.219 1131.98 842.22 1131.97 842.226L1125.5 845.418C1125.5 845.418 1125.5 845.418 1125.5 845.419L1121.72 847.24C1121.67 847.259 1121.63 847.283 1121.59 847.311C1120.08 848.316 1119.57 850.289 1120.39 851.902C1120.83 852.759 1121.58 853.391 1122.51 853.68C1122.86 853.791 1123.22 853.845 1123.58 853.845C1124.16 853.845 1124.74 853.703 1125.26 853.423L1128.04 851.947L1132.57 849.609L1135.28 849.593L1124.4 860.424C1124.4 860.425 1124.39 860.425 1124.39 860.426L1121.72 863.092C1121.08 863.722 1120.74 864.557 1120.74 865.448C1120.74 866.337 1121.08 867.175 1121.72 867.805C1122.37 868.452 1123.22 868.776 1124.07 868.776C1124.93 868.776 1125.78 868.452 1126.43 867.805L1129.06 865.188L1132.54 862.588L1134.35 864.382L1130.82 867.89C1130.82 867.892 1130.82 867.892 1130.82 867.893L1128.14 870.559C1127.51 871.189 1127.16 872.024 1127.16 872.915C1127.16 873.804 1127.51 874.641 1128.14 875.272C1128.79 875.918 1129.65 876.243 1130.5 876.243C1131.36 876.243 1132.21 875.918 1132.86 875.272L1135.54 872.605L1139.83 868.339C1139.83 868.337 1139.83 868.336 1139.83 868.335L1141.85 866.335L1141.84 866.328C1141.85 866.315 1141.87 866.311 1141.88 866.297L1152.22 854.98L1159.16 855.968C1159.21 855.976 1159.26 855.979 1159.31 855.979C1159.44 855.979 1159.56 855.948 1159.68 855.902C1159.72 855.889 1159.75 855.872 1159.78 855.855C1159.82 855.836 1159.86 855.825 1159.9 855.801L1166.32 851.534C1166.35 851.518 1166.36 851.493 1166.38 851.476C1166.41 851.455 1166.44 851.447 1166.46 851.424L1169.01 849.042C1170.33 847.803 1170.51 845.772 1169.43 844.319ZM1124.26 851.54C1123.91 851.726 1123.52 851.763 1123.14 851.644C1122.77 851.528 1122.47 851.273 1122.29 850.928C1121.97 850.301 1122.16 849.537 1122.72 849.124L1125.35 847.86L1125.98 849.709L1126.24 850.485L1124.26 851.54ZM1131.26 847.885L1128.16 849.485L1127.65 847.991L1127.28 846.918L1131.33 844.917L1131.26 847.885ZM1161.45 834.644C1161.45 836.481 1161.02 838.213 1160.26 839.763L1151.89 835.965C1151.81 834.818 1151.21 833.814 1150.32 833.189L1153.24 823.468C1158 824.981 1161.45 829.417 1161.45 834.644ZM1137.88 834.644C1137.88 828.175 1143.16 822.91 1149.66 822.91C1150.17 822.91 1150.67 822.953 1151.16 823.015L1148.29 832.522C1148.25 832.521 1148.22 832.511 1148.18 832.511C1146.11 832.511 1144.43 834.185 1144.43 836.244C1144.43 838.303 1146.11 839.977 1148.18 839.977C1149.57 839.977 1150.77 839.211 1151.41 838.088L1159.14 841.598C1156.99 844.491 1153.55 846.378 1149.66 846.378C1143.16 846.378 1137.88 841.114 1137.88 834.644ZM1149.79 836.244C1149.79 837.126 1149.07 837.844 1148.18 837.844C1147.29 837.844 1146.57 837.126 1146.57 836.244C1146.57 835.362 1147.29 834.644 1148.18 834.644C1149.07 834.644 1149.79 835.362 1149.79 836.244ZM1124.93 866.293C1124.46 866.761 1123.69 866.76 1123.22 866.294C1122.99 866.066 1122.87 865.767 1122.87 865.448C1122.87 865.13 1122.99 864.83 1123.22 864.605L1125.15 862.688L1126.85 864.383L1124.93 866.293ZM1131.36 873.759C1130.88 874.228 1130.12 874.229 1129.65 873.761C1129.42 873.533 1129.3 873.234 1129.3 872.915C1129.3 872.597 1129.42 872.297 1129.65 872.072L1131.57 870.154L1132.38 870.955L1133.28 871.849L1131.36 873.759ZM1138.32 866.822C1138.32 866.823 1138.32 866.823 1138.32 866.824L1134.79 870.344L1133.98 869.543L1133.08 868.649L1136.61 865.138C1136.61 865.138 1136.61 865.138 1136.61 865.137C1136.61 865.136 1136.61 865.136 1136.61 865.135C1136.69 865.055 1136.74 864.959 1136.79 864.864C1136.81 864.837 1136.83 864.813 1136.85 864.784C1136.88 864.702 1136.88 864.614 1136.9 864.527C1136.9 864.478 1136.92 864.432 1136.92 864.382C1136.92 864.311 1136.9 864.241 1136.88 864.171C1136.87 864.107 1136.87 864.042 1136.85 863.98C1136.81 863.88 1136.74 863.791 1136.66 863.705C1136.64 863.681 1136.64 863.651 1136.61 863.629C1136.61 863.629 1136.61 863.629 1136.61 863.629C1136.61 863.628 1136.61 863.626 1136.61 863.625L1133.4 860.425C1133.36 860.391 1133.32 860.377 1133.28 860.348C1133.22 860.304 1133.17 860.264 1133.11 860.233C1133.05 860.203 1132.98 860.185 1132.92 860.168C1132.85 860.148 1132.79 860.133 1132.71 860.128C1132.65 860.124 1132.59 860.13 1132.52 860.138C1132.45 860.146 1132.38 860.156 1132.32 860.178C1132.25 860.2 1132.19 860.233 1132.13 860.268C1132.09 860.29 1132.04 860.298 1132.01 860.325L1128.46 862.973L1126.66 861.179L1131.45 856.407L1140.18 864.984L1138.32 866.822ZM1151.96 852.788C1151.93 852.784 1151.9 852.796 1151.87 852.794C1151.79 852.789 1151.72 852.795 1151.64 852.808C1151.58 852.818 1151.52 852.83 1151.46 852.85C1151.39 852.874 1151.33 852.906 1151.27 852.944C1151.21 852.98 1151.15 853.019 1151.1 853.067C1151.08 853.089 1151.05 853.1 1151.02 853.125L1141.63 863.417L1132.97 854.903L1138.64 849.267C1139.05 848.851 1139.05 848.176 1138.64 847.758C1138.43 847.548 1138.15 847.444 1137.88 847.445V847.444L1133.44 847.471L1133.49 844.256L1139.7 844.309C1142.23 846.897 1145.76 848.511 1149.66 848.511C1150.54 848.511 1151.39 848.42 1152.22 848.266C1152.3 848.33 1152.38 848.395 1152.48 848.435L1157.3 850.355L1157.61 851.872L1157.96 853.643L1151.96 852.788ZM1160.04 853.145L1159.41 850.029L1162.31 847.869L1163.06 848.874L1164.2 850.382L1160.04 853.145ZM1167.55 847.483L1165.87 849.053L1164.01 846.58L1165.67 845.306C1165.98 845.067 1166.37 844.97 1166.76 845.02C1167.14 845.074 1167.49 845.276 1167.72 845.588C1168.15 846.172 1168.08 846.986 1167.55 847.483Z"/>
    <path fill="#2E2F42" d="M1147.2 853.088L1142.92 848.821C1142.5 848.407 1141.83 848.407 1141.41 848.821L1137.13 853.088C1136.93 853.29 1136.81 853.561 1136.81 853.844C1136.81 854.128 1136.93 854.4 1137.13 854.601L1141.41 858.867C1141.62 859.074 1141.89 859.178 1142.17 859.178C1142.44 859.178 1142.71 859.074 1142.92 858.867L1147.2 854.601C1147.4 854.4 1147.52 854.128 1147.52 853.844C1147.52 853.561 1147.41 853.289 1147.2 853.088ZM1142.17 856.606L1139.39 853.844L1142.17 851.083L1144.94 853.844L1142.17 856.606Z"/>
    <path fill="#2E2F42" d="M1154.33 826.142L1153.81 828.213C1153.96 828.248 1157.29 829.117 1157.29 832.511H1159.42C1159.42 828.476 1156.09 826.58 1154.33 826.142Z"/>
    <path fill="#2E2F42" d="M1159.42 834.644H1157.29V836.777H1159.42V834.644Z"/>
    </g>
  </symbol>

  <symbol id="icon-instagram" viewBox="0 0 24 24" fill="none">
    <rect x="3" y="3" width="18" height="18" rx="5" stroke="currentColor" stroke-width="1.6"/>
    <circle cx="12" cy="12" r="4.2" stroke="currentColor" stroke-width="1.6"/>
    <circle cx="17.2" cy="6.8" r="1" fill="currentColor"/>
  </symbol>

  <symbol id="icon-twitter" viewBox="0 0 24 24" fill="none">
    <path d="M21 5.5c-.7.4-1.5.6-2.3.8.8-.5 1.5-1.3 1.8-2.3-.8.5-1.7.8-2.6 1a4.1 4.1 0 0 0-7 3.7A11.6 11.6 0 0 1 2.6 4.2a4.1 4.1 0 0 0 1.3 5.4c-.6 0-1.3-.2-1.8-.5v.1c0 2 1.4 3.6 3.3 4a4.1 4.1 0 0 1-1.8.1 4.1 4.1 0 0 0 3.8 2.8A8.2 8.2 0 0 1 2 17.6a11.6 11.6 0 0 0 6.3 1.8c7.5 0 11.7-6.3 11.7-11.7v-.5c.8-.6 1.5-1.3 2-2.2Z" fill="currentColor"/>
  </symbol>

  <symbol id="icon-facebook" viewBox="0 0 24 24" fill="none">
    <path d="M14 22v-8h2.7l.4-3.2H14V8.7c0-.9.3-1.6 1.6-1.6h1.7V4.3C17 4.3 15.9 4 14.7 4 12 4 10.2 5.6 10.2 8.4v2.4H7.5V14h2.7v8H14Z" fill="currentColor"/>
  </symbol>

  <symbol id="icon-linkedin" viewBox="0 0 24 24" fill="none">
    <rect x="3" y="3" width="18" height="18" rx="3" stroke="currentColor" stroke-width="1.6"/>
    <circle cx="7.5" cy="8" r="1.3" fill="currentColor"/>
    <path d="M7.5 11v6" stroke="currentColor" stroke-width="1.8" stroke-linecap="round"/>
    <path d="M11.5 17v-3.5c0-1.4 1-2.3 2.2-2.3 1.2 0 1.8.8 1.8 2.3V17" stroke="currentColor" stroke-width="1.8" stroke-linecap="round" stroke-linejoin="round"/>
    <path d="M11.5 11v6" stroke="currentColor" stroke-width="1.8" stroke-linecap="round"/>
  </symbol>
</svg>
